<mxfile host="Electron" modified="2024-09-08T16:05:21.095Z" agent="Mozilla/5.0 (Macintosh; Intel Mac OS X 10_15_7) AppleWebKit/537.36 (KHTML, like Gecko) draw.io/22.0.1 Chrome/114.0.5735.289 Electron/25.8.4 Safari/537.36" etag="nXxXJDiTYRe45wog-sWP" version="22.0.1" type="device">
  <diagram name="Page-1" id="5f0bae14-7c28-e335-631c-24af17079c00">
    <mxGraphModel dx="2460" dy="4218" grid="0" gridSize="10" guides="1" tooltips="1" connect="1" arrows="1" fold="1" page="1" pageScale="1" pageWidth="1100" pageHeight="850" background="#ffffff" math="0" shadow="0">
      <root>
        <mxCell id="0" />
        <mxCell id="1" parent="0" />
        <mxCell id="yrU8eHilq-g4TgwC7dAP-11" value="" style="aspect=fixed;perimeter=ellipsePerimeter;html=1;align=center;shadow=0;dashed=0;spacingTop=3;image;image=img/lib/active_directory/laptop_client.svg;" parent="1" vertex="1">
          <mxGeometry x="314" y="-1833" width="72" height="80" as="geometry" />
        </mxCell>
        <mxCell id="yrU8eHilq-g4TgwC7dAP-12" value="" style="aspect=fixed;perimeter=ellipsePerimeter;html=1;align=center;shadow=0;dashed=0;spacingTop=3;image;image=img/lib/active_directory/laptop_client.svg;" parent="1" vertex="1">
          <mxGeometry x="419" y="-1829" width="72" height="80" as="geometry" />
        </mxCell>
        <mxCell id="yrU8eHilq-g4TgwC7dAP-13" value="" style="aspect=fixed;perimeter=ellipsePerimeter;html=1;align=center;shadow=0;dashed=0;spacingTop=3;image;image=img/lib/active_directory/laptop_client.svg;" parent="1" vertex="1">
          <mxGeometry x="531" y="-1819" width="72" height="80" as="geometry" />
        </mxCell>
        <mxCell id="yrU8eHilq-g4TgwC7dAP-14" value="" style="aspect=fixed;perimeter=ellipsePerimeter;html=1;align=center;shadow=0;dashed=0;spacingTop=3;image;image=img/lib/active_directory/laptop_client.svg;" parent="1" vertex="1">
          <mxGeometry x="651" y="-1809" width="72" height="80" as="geometry" />
        </mxCell>
        <mxCell id="yrU8eHilq-g4TgwC7dAP-15" value="" style="aspect=fixed;perimeter=ellipsePerimeter;html=1;align=center;shadow=0;dashed=0;spacingTop=3;image;image=img/lib/active_directory/laptop_client.svg;" parent="1" vertex="1">
          <mxGeometry x="769" y="-1799" width="72" height="80" as="geometry" />
        </mxCell>
        <mxCell id="yrU8eHilq-g4TgwC7dAP-47" value="" style="line;strokeWidth=2;html=1;" parent="1" vertex="1">
          <mxGeometry x="49" y="-1875" width="1015" height="10" as="geometry" />
        </mxCell>
        <mxCell id="yrU8eHilq-g4TgwC7dAP-61" value="&lt;h1&gt;Client&lt;/h1&gt;" style="text;html=1;strokeColor=none;fillColor=none;spacing=5;spacingTop=-20;whiteSpace=wrap;overflow=hidden;rounded=0;" parent="1" vertex="1">
          <mxGeometry x="572" y="-1862" width="120" height="50" as="geometry" />
        </mxCell>
        <mxCell id="3eCkoaNS3KenDKIpcqia-1" value="" style="shape=module;align=left;spacingLeft=20;align=center;verticalAlign=top;" parent="1" vertex="1">
          <mxGeometry x="34" y="-2483" width="632" height="427" as="geometry" />
        </mxCell>
        <mxCell id="yrU8eHilq-g4TgwC7dAP-63" value="" style="endArrow=none;html=1;entryX=0;entryY=0;entryDx=150;entryDy=135;entryPerimeter=0;exitX=0.392;exitY=0.4;exitDx=0;exitDy=0;exitPerimeter=0;edgeStyle=isometricEdgeStyle;curved=1;startArrow=classic;startFill=1;" parent="1" source="yrU8eHilq-g4TgwC7dAP-47" target="39150e848f15840c-3" edge="1">
          <mxGeometry width="50" height="100" relative="1" as="geometry">
            <mxPoint x="426" y="-1933" as="sourcePoint" />
            <mxPoint x="478.8" y="-2033" as="targetPoint" />
          </mxGeometry>
        </mxCell>
        <mxCell id="3eCkoaNS3KenDKIpcqia-31" value="port 80" style="edgeLabel;html=1;align=center;verticalAlign=middle;resizable=0;points=[];fontSize=13;" parent="yrU8eHilq-g4TgwC7dAP-63" vertex="1" connectable="0">
          <mxGeometry x="-0.1983" y="-3" relative="1" as="geometry">
            <mxPoint x="-95" y="-48" as="offset" />
          </mxGeometry>
        </mxCell>
        <mxCell id="3eCkoaNS3KenDKIpcqia-9" value="" style="group" parent="1" vertex="1" connectable="0">
          <mxGeometry x="378" y="-2241" width="260" height="150" as="geometry" />
        </mxCell>
        <mxCell id="3eCkoaNS3KenDKIpcqia-6" value="port 8180" style="verticalAlign=top;align=left;spacingTop=8;spacingLeft=2;spacingRight=12;shape=cube;size=10;direction=south;fontStyle=4;html=1;rounded=0;shadow=0;comic=0;labelBackgroundColor=none;strokeWidth=1;fontFamily=Verdana;fontSize=12" parent="3eCkoaNS3KenDKIpcqia-9" vertex="1">
          <mxGeometry width="260" height="150" as="geometry" />
        </mxCell>
        <mxCell id="3eCkoaNS3KenDKIpcqia-7" value="&lt;h1&gt;auth (keycloak)&lt;/h1&gt;" style="text;html=1;strokeColor=none;fillColor=none;spacing=5;spacingTop=-20;whiteSpace=wrap;overflow=hidden;rounded=0;align=center;" parent="3eCkoaNS3KenDKIpcqia-9" vertex="1">
          <mxGeometry x="62" y="42" width="147" height="70" as="geometry" />
        </mxCell>
        <mxCell id="3eCkoaNS3KenDKIpcqia-11" value="" style="group" parent="1" vertex="1" connectable="0">
          <mxGeometry x="387" y="-2427" width="260" height="147" as="geometry" />
        </mxCell>
        <mxCell id="3eCkoaNS3KenDKIpcqia-12" value="port 5432" style="verticalAlign=top;align=left;spacingTop=8;spacingLeft=2;spacingRight=12;shape=cube;size=10;direction=south;fontStyle=4;html=1;rounded=0;shadow=0;comic=0;labelBackgroundColor=none;strokeWidth=1;fontFamily=Verdana;fontSize=12" parent="3eCkoaNS3KenDKIpcqia-11" vertex="1">
          <mxGeometry width="260" height="147" as="geometry" />
        </mxCell>
        <mxCell id="3eCkoaNS3KenDKIpcqia-13" value="&lt;h1&gt;database (postgres)&lt;/h1&gt;" style="text;html=1;strokeColor=none;fillColor=none;spacing=5;spacingTop=-20;whiteSpace=wrap;overflow=hidden;rounded=0;align=center;" parent="3eCkoaNS3KenDKIpcqia-11" vertex="1">
          <mxGeometry x="62" y="41.16" width="147" height="68.6" as="geometry" />
        </mxCell>
        <mxCell id="yrU8eHilq-g4TgwC7dAP-57" value="&lt;b style=&quot;border-color: var(--border-color);&quot;&gt;&lt;font style=&quot;border-color: var(--border-color); font-size: 24px;&quot;&gt;Docker&lt;/font&gt;&lt;/b&gt;" style="text;html=1;resizable=0;autosize=1;align=center;verticalAlign=middle;points=[];fillColor=none;strokeColor=none;rounded=0;" parent="1" vertex="1">
          <mxGeometry x="66" y="-2473" width="99" height="41" as="geometry" />
        </mxCell>
        <mxCell id="3eCkoaNS3KenDKIpcqia-16" style="edgeStyle=orthogonalEdgeStyle;rounded=0;orthogonalLoop=1;jettySize=auto;html=1;exitX=0.5;exitY=1;exitDx=0;exitDy=0;fontSize=24;" parent="1" source="3eCkoaNS3KenDKIpcqia-1" target="3eCkoaNS3KenDKIpcqia-1" edge="1">
          <mxGeometry relative="1" as="geometry" />
        </mxCell>
        <mxCell id="3eCkoaNS3KenDKIpcqia-26" value="" style="group" parent="1" vertex="1" connectable="0">
          <mxGeometry x="846" y="-2486" width="235" height="426" as="geometry" />
        </mxCell>
        <mxCell id="3eCkoaNS3KenDKIpcqia-17" value="" style="shape=module;align=left;spacingLeft=20;align=center;verticalAlign=top;" parent="3eCkoaNS3KenDKIpcqia-26" vertex="1">
          <mxGeometry width="235" height="426" as="geometry" />
        </mxCell>
        <mxCell id="3eCkoaNS3KenDKIpcqia-18" value="&lt;span style=&quot;font-size: 24px;&quot;&gt;&lt;b&gt;Quarkus (JAVA)&lt;/b&gt;&lt;/span&gt;" style="text;html=1;resizable=0;autosize=1;align=center;verticalAlign=middle;points=[];fillColor=none;strokeColor=none;rounded=0;" parent="3eCkoaNS3KenDKIpcqia-26" vertex="1">
          <mxGeometry x="14" y="8" width="199" height="41" as="geometry" />
        </mxCell>
        <mxCell id="3eCkoaNS3KenDKIpcqia-19" value="Mapper" style="shape=folder;fontStyle=1;spacingTop=10;tabWidth=40;tabHeight=14;tabPosition=left;html=1;fontSize=24;" parent="3eCkoaNS3KenDKIpcqia-26" vertex="1">
          <mxGeometry x="63" y="73" width="120" height="62" as="geometry" />
        </mxCell>
        <mxCell id="3eCkoaNS3KenDKIpcqia-20" value="Business" style="shape=folder;fontStyle=1;spacingTop=10;tabWidth=40;tabHeight=14;tabPosition=left;html=1;fontSize=24;" parent="3eCkoaNS3KenDKIpcqia-26" vertex="1">
          <mxGeometry x="69" y="188" width="120" height="62" as="geometry" />
        </mxCell>
        <mxCell id="3eCkoaNS3KenDKIpcqia-21" value="Service" style="shape=folder;fontStyle=1;spacingTop=10;tabWidth=40;tabHeight=14;tabPosition=left;html=1;fontSize=24;" parent="3eCkoaNS3KenDKIpcqia-26" vertex="1">
          <mxGeometry x="69" y="314" width="120" height="62" as="geometry" />
        </mxCell>
        <mxCell id="3eCkoaNS3KenDKIpcqia-23" value="" style="endArrow=classic;startArrow=classic;html=1;rounded=0;fontSize=24;exitX=0.446;exitY=0.185;exitDx=0;exitDy=0;exitPerimeter=0;" parent="3eCkoaNS3KenDKIpcqia-26" source="3eCkoaNS3KenDKIpcqia-20" target="3eCkoaNS3KenDKIpcqia-19" edge="1">
          <mxGeometry width="50" height="50" relative="1" as="geometry">
            <mxPoint x="109" y="182" as="sourcePoint" />
            <mxPoint x="159" y="132" as="targetPoint" />
          </mxGeometry>
        </mxCell>
        <mxCell id="3eCkoaNS3KenDKIpcqia-24" value="" style="endArrow=classic;startArrow=classic;html=1;rounded=0;fontSize=24;exitX=0.488;exitY=0.185;exitDx=0;exitDy=0;exitPerimeter=0;entryX=0.5;entryY=1;entryDx=0;entryDy=0;entryPerimeter=0;" parent="3eCkoaNS3KenDKIpcqia-26" source="3eCkoaNS3KenDKIpcqia-21" target="3eCkoaNS3KenDKIpcqia-20" edge="1">
          <mxGeometry width="50" height="50" relative="1" as="geometry">
            <mxPoint x="134" y="318" as="sourcePoint" />
            <mxPoint x="136.3241395202681" y="249.52999999999997" as="targetPoint" />
          </mxGeometry>
        </mxCell>
        <mxCell id="3eCkoaNS3KenDKIpcqia-32" value="" style="curved=1;endArrow=classic;html=1;rounded=0;fontSize=13;exitX=0.471;exitY=0.4;exitDx=0;exitDy=0;exitPerimeter=0;startArrow=classic;startFill=1;" parent="1" source="yrU8eHilq-g4TgwC7dAP-47" target="3eCkoaNS3KenDKIpcqia-21" edge="1">
          <mxGeometry width="50" height="50" relative="1" as="geometry">
            <mxPoint x="811" y="-1959" as="sourcePoint" />
            <mxPoint x="861" y="-2009" as="targetPoint" />
            <Array as="points">
              <mxPoint x="861" y="-1959" />
              <mxPoint x="811" y="-2009" />
            </Array>
          </mxGeometry>
        </mxCell>
        <mxCell id="3eCkoaNS3KenDKIpcqia-34" value="port 8888" style="edgeLabel;html=1;align=center;verticalAlign=middle;resizable=0;points=[];fontSize=13;" parent="3eCkoaNS3KenDKIpcqia-32" vertex="1" connectable="0">
          <mxGeometry x="0.3313" y="-4" relative="1" as="geometry">
            <mxPoint as="offset" />
          </mxGeometry>
        </mxCell>
        <mxCell id="3eCkoaNS3KenDKIpcqia-49" value="api rest" style="edgeLabel;html=1;align=center;verticalAlign=middle;resizable=0;points=[];fontSize=13;" parent="3eCkoaNS3KenDKIpcqia-32" vertex="1" connectable="0">
          <mxGeometry x="-0.1375" y="8" relative="1" as="geometry">
            <mxPoint as="offset" />
          </mxGeometry>
        </mxCell>
        <mxCell id="3eCkoaNS3KenDKIpcqia-28" value="" style="curved=1;endArrow=none;html=1;rounded=0;fontSize=24;entryX=0;entryY=0;entryDx=0;entryDy=38;entryPerimeter=0;strokeColor=default;startArrow=classic;startFill=1;endFill=0;" parent="1" target="3eCkoaNS3KenDKIpcqia-21" edge="1">
          <mxGeometry width="50" height="50" relative="1" as="geometry">
            <mxPoint x="634" y="-2117" as="sourcePoint" />
            <mxPoint x="921" y="-2135" as="targetPoint" />
            <Array as="points">
              <mxPoint x="711" y="-2096" />
              <mxPoint x="794" y="-2069" />
              <mxPoint x="744" y="-2144" />
            </Array>
          </mxGeometry>
        </mxCell>
        <mxCell id="3eCkoaNS3KenDKIpcqia-29" value="&lt;font style=&quot;font-size: 13px;&quot;&gt;port 8180&lt;/font&gt;" style="edgeLabel;html=1;align=center;verticalAlign=middle;resizable=0;points=[];fontSize=24;" parent="3eCkoaNS3KenDKIpcqia-28" vertex="1" connectable="0">
          <mxGeometry x="0.3821" y="-4" relative="1" as="geometry">
            <mxPoint x="42" y="-3" as="offset" />
          </mxGeometry>
        </mxCell>
        <mxCell id="3eCkoaNS3KenDKIpcqia-36" value="" style="endArrow=classic;html=1;fontSize=13;strokeColor=default;shape=link;edgeStyle=isometricEdgeStyle;" parent="1" edge="1">
          <mxGeometry width="50" height="50" relative="1" as="geometry">
            <mxPoint x="125" y="-2345" as="sourcePoint" />
            <mxPoint x="175" y="-2395" as="targetPoint" />
          </mxGeometry>
        </mxCell>
        <mxCell id="3eCkoaNS3KenDKIpcqia-38" value="&lt;font style=&quot;font-size: 13px;&quot;&gt;network: acad-net&lt;/font&gt;" style="edgeLabel;html=1;align=center;verticalAlign=middle;resizable=0;points=[];fontSize=24;" parent="1" vertex="1" connectable="0">
          <mxGeometry x="152.00228091914573" y="-2414.995699987633" as="geometry" />
        </mxCell>
        <mxCell id="3eCkoaNS3KenDKIpcqia-42" value="" style="group" parent="1" vertex="1" connectable="0">
          <mxGeometry x="100" y="-2241" width="260" height="155" as="geometry" />
        </mxCell>
        <mxCell id="3eCkoaNS3KenDKIpcqia-4" value="" style="group" parent="3eCkoaNS3KenDKIpcqia-42" vertex="1" connectable="0">
          <mxGeometry width="260" height="155" as="geometry" />
        </mxCell>
        <mxCell id="39150e848f15840c-3" value="port 80" style="verticalAlign=top;align=left;spacingTop=8;spacingLeft=2;spacingRight=12;shape=cube;size=10;direction=south;fontStyle=4;html=1;rounded=0;shadow=0;comic=0;labelBackgroundColor=none;strokeWidth=1;fontFamily=Verdana;fontSize=12" parent="3eCkoaNS3KenDKIpcqia-4" vertex="1">
          <mxGeometry width="260" height="150" as="geometry" />
        </mxCell>
        <mxCell id="yrU8eHilq-g4TgwC7dAP-56" value="&lt;h1 style=&quot;text-align: center;&quot;&gt;webserver (nginx)&lt;/h1&gt;&lt;div&gt;&lt;br&gt;&lt;/div&gt;" style="text;html=1;strokeColor=none;fillColor=none;spacing=5;spacingTop=-20;whiteSpace=wrap;overflow=hidden;rounded=0;" parent="3eCkoaNS3KenDKIpcqia-4" vertex="1">
          <mxGeometry x="50" y="34" width="147" height="70" as="geometry" />
        </mxCell>
        <mxCell id="3eCkoaNS3KenDKIpcqia-39" value="" style="shape=document;whiteSpace=wrap;html=1;boundedLbl=1;fontSize=13;" parent="3eCkoaNS3KenDKIpcqia-4" vertex="1">
          <mxGeometry x="14" y="74" width="61" height="53" as="geometry" />
        </mxCell>
        <mxCell id="3eCkoaNS3KenDKIpcqia-40" value="" style="shape=document;whiteSpace=wrap;html=1;boundedLbl=1;fontSize=13;" parent="3eCkoaNS3KenDKIpcqia-42" vertex="1">
          <mxGeometry x="24" y="84" width="61" height="53" as="geometry" />
        </mxCell>
        <mxCell id="3eCkoaNS3KenDKIpcqia-41" value="html" style="shape=document;whiteSpace=wrap;html=1;boundedLbl=1;fontSize=13;" parent="3eCkoaNS3KenDKIpcqia-42" vertex="1">
          <mxGeometry x="34" y="94" width="61" height="53" as="geometry" />
        </mxCell>
        <mxCell id="3eCkoaNS3KenDKIpcqia-44" value="port 8180" style="curved=1;endArrow=none;html=1;fontSize=13;strokeColor=default;exitX=0.442;exitY=0.2;exitDx=0;exitDy=0;exitPerimeter=0;startArrow=classic;startFill=1;endFill=0;" parent="1" edge="1">
          <mxGeometry x="0.1606" y="-24" width="50" height="50" relative="1" as="geometry">
            <mxPoint x="502.6300000000001" y="-1873" as="sourcePoint" />
            <mxPoint x="529" y="-2129" as="targetPoint" />
            <Array as="points">
              <mxPoint x="637" y="-1937" />
              <mxPoint x="548" y="-1993" />
              <mxPoint x="521" y="-2048" />
              <mxPoint x="651" y="-1996" />
            </Array>
            <mxPoint as="offset" />
          </mxGeometry>
        </mxCell>
        <mxCell id="3eCkoaNS3KenDKIpcqia-48" value="authentification jwt" style="edgeLabel;html=1;align=center;verticalAlign=middle;resizable=0;points=[];fontSize=13;" parent="3eCkoaNS3KenDKIpcqia-44" vertex="1" connectable="0">
          <mxGeometry x="-0.3194" relative="1" as="geometry">
            <mxPoint as="offset" />
          </mxGeometry>
        </mxCell>
        <mxCell id="2AnJBe_gp9e3XgDr-_-7-2" value="getmessages" style="edgeLabel;html=1;align=center;verticalAlign=middle;resizable=0;points=[];fontSize=13;" parent="3eCkoaNS3KenDKIpcqia-44" vertex="1" connectable="0">
          <mxGeometry x="-0.3194" relative="1" as="geometry">
            <mxPoint x="161" y="-344" as="offset" />
          </mxGeometry>
        </mxCell>
        <mxCell id="3eCkoaNS3KenDKIpcqia-47" value="get html page" style="edgeLabel;html=1;align=center;verticalAlign=middle;resizable=0;points=[];fontSize=13;" parent="1" vertex="1" connectable="0">
          <mxGeometry x="360.9992306880853" y="-1985.9976235614072" as="geometry" />
        </mxCell>
        <mxCell id="3eCkoaNS3KenDKIpcqia-53" value="get role&lt;br&gt;from jwt" style="edgeLabel;html=1;align=center;verticalAlign=middle;resizable=0;points=[];fontSize=13;" parent="1" vertex="1" connectable="0">
          <mxGeometry x="796.9970675138153" y="-1940.9999645767139" as="geometry">
            <mxPoint x="-40" y="-194" as="offset" />
          </mxGeometry>
        </mxCell>
        <mxCell id="3eCkoaNS3KenDKIpcqia-25" value="" style="curved=1;endArrow=classic;html=1;rounded=0;fontSize=24;entryX=0;entryY=0;entryDx=0;entryDy=26;entryPerimeter=0;startArrow=classic;startFill=1;" parent="1" target="3eCkoaNS3KenDKIpcqia-19" edge="1">
          <mxGeometry width="50" height="50" relative="1" as="geometry">
            <mxPoint x="651" y="-2345" as="sourcePoint" />
            <mxPoint x="780" y="-2393" as="targetPoint" />
            <Array as="points">
              <mxPoint x="780" y="-2343" />
              <mxPoint x="730" y="-2393" />
            </Array>
          </mxGeometry>
        </mxCell>
        <mxCell id="3eCkoaNS3KenDKIpcqia-27" value="&lt;font style=&quot;font-size: 13px;&quot;&gt;port 5444&lt;/font&gt;" style="edgeLabel;html=1;align=center;verticalAlign=middle;resizable=0;points=[];fontSize=24;" parent="3eCkoaNS3KenDKIpcqia-25" vertex="1" connectable="0">
          <mxGeometry x="0.3821" y="-4" relative="1" as="geometry">
            <mxPoint x="1" as="offset" />
          </mxGeometry>
        </mxCell>
        <mxCell id="gTeQ_BROfKBPYruojfau-2" value="&lt;h1&gt;Déploiement en mode développement&lt;/h1&gt;" style="text;html=1;strokeColor=none;fillColor=none;spacing=5;spacingTop=-20;whiteSpace=wrap;overflow=hidden;rounded=0;align=center;" parent="1" vertex="1">
          <mxGeometry x="282" y="-2536" width="490" height="40" as="geometry" />
        </mxCell>
      </root>
    </mxGraphModel>
  </diagram>
</mxfile>
